                  <svg width="47" height="48" viewBox="0 0 47 48" fill="none" xmlns="http://www.w3.org/2000/svg">
<path fill-rule="evenodd" clip-rule="evenodd" d="M23.5 43.5832C34.3155 43.5832 43.0834 34.8153 43.0834 23.9998C43.0834 13.1843 34.3155 4.4165 23.5 4.4165C12.6844 4.4165 3.91669 13.1843 3.91669 23.9998C3.91669 34.8153 12.6844 43.5832 23.5 43.5832ZM24.9688 18.1248C24.9688 17.3137 24.3112 16.6561 23.5 16.6561C22.6889 16.6561 22.0313 17.3137 22.0313 18.1248V22.5311H17.625C16.8139 22.5311 16.1563 23.1887 16.1563 23.9998C16.1563 24.811 16.8139 25.4686 17.625 25.4686H22.0313V29.8748C22.0313 30.686 22.6889 31.3436 23.5 31.3436C24.3112 31.3436 24.9688 30.686 24.9688 29.8748V25.4686H29.375C30.1862 25.4686 30.8438 24.811 30.8438 23.9998C30.8438 23.1887 30.1862 22.5311 29.375 22.5311H24.9688V18.1248Z" fill="#DFDFDF"/>
                  </svg>