              <svg width="20" height="18" viewBox="0 0 20 18" fill="none" xmlns="http://www.w3.org/2000/svg">
  <path d="M15.8334 1.5H4.16675C2.98824 1.5 2.39898 1.5 2.03286 1.8435C1.66675 2.187 1.66675 2.73985 1.66675 3.84555V4.4204C1.66675 5.28527 1.66675 5.7177 1.88308 6.07618C2.09941 6.43467 2.49464 6.65715 3.2851 7.10213L5.71261 8.46867C6.24296 8.76717 6.50814 8.9165 6.69801 9.08133C7.09341 9.42458 7.33681 9.82792 7.44711 10.3227C7.50008 10.5602 7.50008 10.8382 7.50008 11.3941V13.6187C7.50008 14.3767 7.50008 14.7556 7.71001 15.0511C7.91996 15.3465 8.29281 15.4922 9.03858 15.7838C10.6041 16.3958 11.3868 16.7018 11.9435 16.3537C12.5001 16.0055 12.5001 15.2099 12.5001 13.6187V11.3941C12.5001 10.8382 12.5001 10.5602 12.5531 10.3227C12.6633 9.82792 12.9067 9.42458 13.3022 9.08133C13.492 8.9165 13.7572 8.76717 14.2876 8.46867L16.7151 7.10213C17.5055 6.65715 17.9007 6.43467 18.1171 6.07618C18.3334 5.7177 18.3334 5.28527 18.3334 4.4204V3.84555C18.3334 2.73985 18.3334 2.187 17.9673 1.8435C17.6012 1.5 17.0119 1.5 15.8334 1.5Z" stroke="#5D6150" strokeWidth="1.5"/>
              </svg>