                    <svg width="21" height="21" viewBox="0 0 21 21" fill="none" xmlns="http://www.w3.org/2000/svg">
                    <path d="M1.75 10.5C1.75 6.37521 1.75 4.31281 3.03141 3.03141C4.31281 1.75 6.37521 1.75 10.5 1.75C14.6248 1.75 16.6872 1.75 17.9686 3.03141C19.25 4.31281 19.25 6.37521 19.25 10.5C19.25 14.6248 19.25 16.6872 17.9686 17.9686C16.6872 19.25 14.6248 19.25 10.5 19.25C6.37521 19.25 4.31281 19.25 3.03141 17.9686C1.75 16.6872 1.75 14.6248 1.75 10.5Z" stroke="#DFDFDF" strokeWidth="1.5"/>
                    <path d="M6.125 12.25L7.69728 10.3632C8.32032 9.61564 8.63184 9.24175 9.04164 9.24175C9.45149 9.24175 9.76299 9.61564 10.3861 10.3632L10.6139 10.6368C11.237 11.3844 11.5485 11.7582 11.9584 11.7582C12.3681 11.7582 12.6797 11.3844 13.3027 10.6368L14.875 8.75" stroke="#DFDFDF" strokeWidth="1.5" strokeLinecap="round"/>
                    </svg>